<svg xmlns="http://www.w3.org/2000/svg" viewBox="0 90 400 320" width="400" height="320">
  <defs>
    <filter id="glow" x="-50%" y="-50%" width="200%" height="200%">
      <feGaussianBlur in="SourceGraphic" stdDeviation="2" result="blur"/>
      <feMerge>
        <feMergeNode in="blur"/>
        <feMergeNode in="SourceGraphic"/>
      </feMerge>
    </filter>
  </defs>

  <!-- Michigan outline -->
  <g fill="#2d4a32" stroke="#3d6b45" stroke-width="1.5" stroke-linejoin="round">
    <path id="upper-peninsula" d="M147.15,242.73 L140.25,238.05 L144.44,231.64 L133.84,230.66 L138.03,224.5 L138.52,216.61 L129.16,211.19 L123.98,205.52 L104.76,201.09 L98.85,202.57 L79.63,195.91 L33.31,186.8 L28.38,179.16 L20,176.45 L37.49,171.77 L45.38,166.34 L65.09,164.13 L77.91,157.47 L83.82,157.23 L88.75,152.55 L102.79,145.89 L109.94,140.23 L120.53,136.53 L130.64,139.73 L112.9,153.53 L108.71,158.21 L108.95,166.59 L117.58,160.18 L133.1,161.17 L145.17,165.61 L156.02,177.93 L161.93,180.14 L173.26,178.17 L175.98,180.88 L187.31,182.36 L211.46,172.01 L224.02,171.03 L240.78,171.52 L252.11,168.07 L260.74,167.82 L262.46,180.39 L271.33,182.11 L280.21,180.14 L283.9,183.1 L289.82,179.4 L302.87,178.17 L303.12,193.94 L309.03,200.6 L317.91,202.32 L318.89,197.89 L327.52,197.89 L332.2,202.57 L328.25,206.02 L303.61,203.06 L291.79,205.03 L278.97,199.61 L275.28,204.54 L277,208.73 L271.33,207.74 L262.96,201.58 L248.42,197.89 L241.03,197.64 L233.88,203.55 L222.05,205.03 L209.24,203.8 L204.07,206.26 L202.83,211.19 L188.79,215.38 L189.53,209.47 L183.37,208.23 L180.9,214.39 L170.55,214.64 L165.87,217.35 L158.97,227.95 L146.16,241.5 L147.15,242.73 Z"/>
    <path id="lower-peninsula" d="M333.18,394.02 L272.32,395.75 L272.32,392.79 L219.1,392.79 L181.64,392.79 L190.76,386.88 L196.92,376.78 L202.59,370.62 L206.78,361.99 L209.24,349.67 L208.25,336.37 L194.95,310.25 L199.14,300.39 L196.18,288.56 L206.53,276.49 L208.75,266.39 L207.27,260.97 L214.66,258.75 L215.65,251.36 L227.23,249.38 L236.1,241.25 L235.36,257.52 L240.04,258.25 L245.95,250.12 L246.2,236.32 L249.9,232.87 L262.22,230.66 L258.28,221.05 L266.41,212.92 L276.51,212.42 L287.84,217.6 L298.93,218.34 L304.35,224.74 L312.73,225.24 L326.78,231.15 L331.7,230.9 L339.34,240.51 L333.18,245.69 L339.1,252.34 L341.31,259.98 L338.6,276.74 L329.49,280.92 L327.27,289.55 L316.43,292.51 L310.51,302.85 L312.73,306.8 L323.57,310.49 L331.95,304.83 L341.81,293.24 L357.33,288.81 L364.97,292.26 L369.65,298.67 L374.33,317.39 L375.07,326.76 L380,338.09 L375.32,354.35 L367.93,356.82 L367.68,350.9 L362.75,352.63 L357.08,366.18 L347.97,371.36 L345.26,381.7 L333.92,390.33 L333.18,394.02 Z"/>
    <path id="beaver-island" d="M240.78,214.15 L241.52,219.57 L235.61,220.55 L238.07,212.92 L240.78,214.15 Z"/>
    <path id="isle-royale" d="M92.44,113.12 L81.11,118.79 L75.2,119.53 L75.69,114.85 L104.02,104.25 L98.6,111.64 L92.44,113.12 Z"/>
  </g>

  <!-- Mesh connection lines -->
  <g stroke="#67ea94" stroke-width="1" opacity="0.45">
    <!-- UP connections -->
    <line x1="55" y1="175" x2="115" y2="155"/>
    <line x1="115" y1="155" x2="165" y2="178"/>
    <line x1="115" y1="155" x2="242" y2="175"/>
    <line x1="165" y1="178" x2="242" y2="175"/>
    <line x1="242" y1="175" x2="305" y2="200"/>
    <!-- UP to LP bridge -->
    <line x1="305" y1="200" x2="310" y2="228"/>
    <!-- LP connections -->
    <line x1="238" y1="252" x2="310" y2="228"/>
    <line x1="238" y1="252" x2="260" y2="290"/>
    <line x1="310" y1="228" x2="335" y2="275"/>
    <line x1="310" y1="228" x2="260" y2="290"/>
    <line x1="335" y1="275" x2="360" y2="310"/>
    <line x1="335" y1="275" x2="305" y2="335"/>
    <line x1="260" y1="290" x2="305" y2="335"/>
    <line x1="260" y1="290" x2="220" y2="360"/>
    <line x1="360" y1="310" x2="345" y2="375"/>
    <line x1="305" y1="335" x2="345" y2="375"/>
    <line x1="305" y1="335" x2="220" y2="360"/>
    <line x1="220" y1="360" x2="345" y2="375"/>
  </g>

  <!-- Mesh nodes -->
  <g filter="url(#glow)">
    <!-- UP nodes -->
    <circle cx="55" cy="175" r="4" fill="#67ea94"/>
    <circle cx="115" cy="155" r="4" fill="#67ea94"/>
    <circle cx="165" cy="178" r="4" fill="#67ea94"/>
    <circle cx="242" cy="175" r="4" fill="#67ea94"/>
    <circle cx="305" cy="200" r="4" fill="#67ea94"/>
    <!-- LP nodes -->
    <circle cx="238" cy="252" r="4" fill="#67ea94"/>
    <circle cx="310" cy="228" r="4" fill="#67ea94"/>
    <circle cx="260" cy="290" r="4" fill="#67ea94"/>
    <circle cx="335" cy="275" r="4.5" fill="#e07050"/>
    <circle cx="360" cy="310" r="4" fill="#e07050"/>
    <circle cx="305" cy="335" r="4" fill="#67ea94"/>
    <circle cx="220" cy="360" r="4" fill="#67ea94"/>
    <circle cx="345" cy="375" r="4" fill="#67ea94"/>
  </g>
</svg>
